<?xml version="1.0" encoding="UTF-8"?>
<svg enable-background="new 0 0 333.33 287.889" viewBox="0 0 333.33 287.889" xmlns="http://www.w3.org/2000/svg">
 <path d="m318.63 191.34-42.85-127.63 6.892 1.386c-0.563 2.401 0.902 4.816 3.304 5.41 2.419 0.599 4.869-0.877 5.47-3.298s-0.878-4.868-3.301-5.469c-2.095-0.518-4.205 0.523-5.125 2.384l-58.157-17.148-54.361-16.029-0.509-9.298c5.801-0.21 10.444-4.966 10.444-10.818 1e-3 -5.985-4.855-10.838-10.84-10.838s-10.837 4.853-10.837 10.838c0 5.288 3.79 9.686 8.8 10.64l-0.477 8.708-53.88-10.838-60.542-12.179c0.08-2.094-1.315-4.028-3.429-4.552-2.419-0.599-4.867 0.879-5.466 3.299s0.877 4.869 3.297 5.468 4.865-0.876 5.468-3.292l5.889 1.736-42.537 127.16h-15.88s9.255 20.324 58.069 20.324 54.804-20.324 54.804-20.324h-10.446l-42.542-126.72 51.784 15.269 54.78 16.151-11.758 214.82s0.461 9.693-14.772 12.002-34.621 3.229-43.853 8.309-10.617 11.078-10.617 11.078h166.64s-1.386-6-10.615-11.078-28.621-6.001-43.854-8.309-14.772-12.002-14.772-12.002l-11.704-213.83 52.188 10.499 51.506 10.362-42.755 127.82h-11.623s9.255 20.324 58.068 20.324 54.804-20.324 54.804-20.324h-14.703zm-219.7-54.362h-79.558l39.709-118.71 39.849 118.71zm136.64 54.362 39.708-118.71 39.85 118.71h-79.558z"/>
</svg>
